<?xml version="1.0" standalone="no"?>
<!DOCTYPE svg PUBLIC "-//W3C//DTD SVG 20010904//EN" "http://www.w3.org/TR/2001/REC-SVG-20010904/DTD/svg10.dtd">
<svg version="1.0" xmlns="http://www.w3.org/2000/svg" width="500.000000pt" height="500.000000pt" viewBox="0 0 500.000000 500.000000" preserveAspectRatio="xMidYMid meet">
  <g transform="translate(0.000000,500.000000) scale(0.100000,-0.100000)" fill="#000000" stroke="none">
    <path d="M2493 4984 c-74 -32 -97 -79 -132 -263 -45 -234 -154 -501 -287 -701
-115 -174 -154 -217 -631 -696 -226 -226 -423 -429 -439 -450 -16 -22 -31 -41
-34 -44 -45 -43 -135 -244 -154 -345 -4 -16 -9 -41 -12 -55 -3 -14 -7 -72 -9
-130 -12 -437 274 -817 702 -931 84 -23 293 -31 385 -16 135 22 289 89 406
177 96 72 1000 976 1027 1027 23 45 24 117 2 159 -43 82 -134 117 -230 88 -12
-3 -240 -223 -507 -489 -311 -310 -506 -496 -543 -520 -262 -165 -610 -92
-785 166 -138 204 -124 487 34 684 17 22 216 225 440 450 401 402 500 510 600
650 182 256 317 559 383 860 51 231 46 284 -33 353 -47 41 -124 52 -183 26z" />
    <path d="M3139 3656 c-2 -2 -28 -7 -58 -10 -124 -15 -292 -87 -418 -179 -68
-50 -1000 -983 -1020 -1021 -18 -35 -23 -104 -9 -142 34 -97 160 -149 250
-103 11 6 244 233 516 503 439 437 502 496 560 524 89 43 180 65 277 64 455
-1 726 -533 460 -905 -19 -27 -225 -240 -458 -475 -490 -494 -468 -470 -627
-682 -50 -68 -164 -273 -221 -401 -77 -172 -156 -453 -174 -616 -10 -88 33
-167 108 -199 81 -34 188 6 230 86 12 23 20 58 39 175 14 78 75 283 111 370
31 73 113 232 156 301 102 163 199 272 613 688 231 231 449 457 485 501 98
121 174 297 198 455 10 71 9 204 -3 279 -63 398 -367 707 -762 776 -67 11
-244 19 -253 11z" />
  </g>
</svg>